<mxfile host="app.diagrams.net" agent="Mozilla/5.0 (Windows NT 10.0; Win64; x64) AppleWebKit/537.36 (KHTML, like Gecko) Chrome/134.0.0.0 Safari/537.36 Edg/134.0.0.0" version="26.1.0">
  <diagram name="Page-1" id="yGWYPgMcCdLCbsrSvj5S">
    <mxGraphModel dx="784" dy="1099" grid="1" gridSize="10" guides="1" tooltips="1" connect="1" arrows="1" fold="1" page="1" pageScale="1" pageWidth="827" pageHeight="1169" math="0" shadow="0">
      <root>
        <mxCell id="0" />
        <mxCell id="1" parent="0" />
        <mxCell id="xUWw6jY_1APWcy3D81xN-1" value="" style="rounded=0;whiteSpace=wrap;html=1;" vertex="1" parent="1">
          <mxGeometry x="70" y="160" width="580" height="40" as="geometry" />
        </mxCell>
        <mxCell id="xUWw6jY_1APWcy3D81xN-2" value="0xff" style="rounded=0;whiteSpace=wrap;html=1;fillColor=#f8cecc;strokeColor=#b85450;" vertex="1" parent="1">
          <mxGeometry x="230" y="160" width="40" height="40" as="geometry" />
        </mxCell>
        <mxCell id="xUWw6jY_1APWcy3D81xN-3" value="(type, target)" style="rounded=0;whiteSpace=wrap;html=1;fillColor=#dae8fc;strokeColor=#6c8ebf;" vertex="1" parent="1">
          <mxGeometry x="70" y="160" width="80" height="40" as="geometry" />
        </mxCell>
        <mxCell id="xUWw6jY_1APWcy3D81xN-4" value="(type, target)" style="rounded=0;whiteSpace=wrap;html=1;fillColor=#dae8fc;strokeColor=#6c8ebf;" vertex="1" parent="1">
          <mxGeometry x="150" y="160" width="80" height="40" as="geometry" />
        </mxCell>
        <mxCell id="xUWw6jY_1APWcy3D81xN-6" value="AST bytes" style="rounded=0;whiteSpace=wrap;html=1;fillColor=#d5e8d4;strokeColor=#82b366;" vertex="1" parent="1">
          <mxGeometry x="270" y="160" width="160" height="40" as="geometry" />
        </mxCell>
        <mxCell id="xUWw6jY_1APWcy3D81xN-7" value="0xff" style="rounded=0;whiteSpace=wrap;html=1;fillColor=#f8cecc;strokeColor=#b85450;" vertex="1" parent="1">
          <mxGeometry x="430" y="160" width="40" height="40" as="geometry" />
        </mxCell>
        <mxCell id="xUWw6jY_1APWcy3D81xN-8" value="AST bytes" style="rounded=0;whiteSpace=wrap;html=1;fillColor=#d5e8d4;strokeColor=#82b366;" vertex="1" parent="1">
          <mxGeometry x="470" y="160" width="180" height="40" as="geometry" />
        </mxCell>
        <mxCell id="xUWw6jY_1APWcy3D81xN-9" value="" style="endArrow=classic;startArrow=classic;html=1;rounded=0;exitX=0.5;exitY=1;exitDx=0;exitDy=0;entryX=0.55;entryY=1.075;entryDx=0;entryDy=0;entryPerimeter=0;" edge="1" parent="1" source="xUWw6jY_1APWcy3D81xN-3" target="xUWw6jY_1APWcy3D81xN-6">
          <mxGeometry width="50" height="50" relative="1" as="geometry">
            <mxPoint x="95" y="250" as="sourcePoint" />
            <mxPoint x="350" y="240" as="targetPoint" />
            <Array as="points">
              <mxPoint x="110" y="240" />
              <mxPoint x="360" y="240" />
            </Array>
          </mxGeometry>
        </mxCell>
        <mxCell id="xUWw6jY_1APWcy3D81xN-10" value="" style="endArrow=classic;startArrow=classic;html=1;rounded=0;exitX=0.613;exitY=-0.1;exitDx=0;exitDy=0;exitPerimeter=0;" edge="1" parent="1">
          <mxGeometry width="50" height="50" relative="1" as="geometry">
            <mxPoint x="189.99999999999997" y="160" as="sourcePoint" />
            <mxPoint x="550" y="160" as="targetPoint" />
            <Array as="points">
              <mxPoint x="190.96" y="124" />
              <mxPoint x="440.96" y="124" />
              <mxPoint x="550" y="124" />
            </Array>
          </mxGeometry>
        </mxCell>
      </root>
    </mxGraphModel>
  </diagram>
</mxfile>
